<?xml version="1.0" encoding="UTF-8"?>
<svg id="Layer_1" xmlns="http://www.w3.org/2000/svg" version="1.1" viewBox="0 0 100 100">
  <!-- Generator: Adobe Illustrator 29.8.1, SVG Export Plug-In . SVG Version: 2.1.1 Build 2)  -->
  <defs>
    <style>
      .st0 {
        fill: #ff5fb7;
      }

      .st1 {
        fill: #ff89ca;
      }

      .st2 {
        fill: #fad98a;
      }

      .st3 {
        fill: #fbf198;
      }

      .st4 {
        fill: #f6ca56;
      }

      .st5 {
        fill: #f633a2;
      }
    </style>
  </defs>
  <path class="st1" d="M57.58,56.4l-7.39,16.26-6.54,14.39-7.53-8.38-2.39-.06-9.11-.21,13.92-30.65,19.04,8.65Z"/>
  <path class="st0" d="M57.58,56.4l-7.39,16.26c-1.38-.52-2.58-1.42-3.46-2.58-.73-.96-2.01-1.31-3.13-.84-1.3.55-2.75.73-4.16.52-1.05-.16-2.08.39-2.5,1.37l-3.22,7.48-9.11-.21,13.92-30.65,19.04,8.65Z"/>
  <path class="st0" d="M43.65,87.06l-.49,1.08c-.83,1.82-3.41,1.81-4.22-.02l-2.75-6.2c-.48-1.07-1.68-1.62-2.8-1.27l-.62.19-5.86,1.81c-1.91.59-3.62-1.35-2.79-3.17l.49-1.08,7.47-2.31c.95-.29,1.91-.37,2.85-.27,2.38.27,4.53,1.77,5.55,4.08l3.17,7.15Z"/>
  <path class="st5" d="M34.93,75.83l-2.16,5.01-5.86,1.81c-1.91.59-3.62-1.35-2.79-3.17l.49-1.08,7.47-2.31c.95-.29,1.91-.37,2.85-.27Z"/>
  <path class="st1" d="M81.25,78.41l-11.25.74-1.18,1.19-6.61,6.71-13.93-30.65,19.04-8.65,6.31,13.89,7.62,16.77Z"/>
  <path class="st0" d="M73.63,61.64c-.34.39-.57.87-.64,1.41-.3,2.33-1.64,4.5-3.83,5.76-.76.44-1.57.74-2.38.9-1.5.3-2.3,1.94-1.62,3.3l3.66,7.33-6.61,6.71-13.93-30.65,19.04-8.65,6.31,13.89Z"/>
  <path class="st0" d="M78.95,82.66l-6.47-2.01c-1.12-.35-2.32.2-2.8,1.27l-.03.06-2.72,6.13c-.81,1.83-3.4,1.84-4.22.02l-.49-1.08,3.17-7.15c.46-1.02,1.13-1.89,1.95-2.56,1.75-1.44,4.16-1.97,6.45-1.26l7.47,2.31.49,1.08c.83,1.82-.88,3.76-2.79,3.17h0Z"/>
  <path class="st5" d="M69.64,81.99l-2.72,6.13c-.81,1.83-3.4,1.84-4.22.02l-.49-1.08,3.17-7.15c.46-1.02,1.13-1.89,1.95-2.56l2.32,4.63Z"/>
  <path class="st2" d="M80.81,40.7c0,2.17-1.04,4.1-2.64,5.32-.83.63-1.12,1.72-.72,2.68.78,1.86.71,4.05-.37,5.93-1.09,1.88-2.95,3.04-4.95,3.29-1.03.13-1.83.93-1.96,1.96-.26,2-1.41,3.86-3.29,4.95-1.88,1.09-4.07,1.15-5.93.38-.92-.39-1.97-.13-2.61.62l-22.71-8.27-1.72.39c-.06-.01-.11-.02-.17-.03-2-.26-3.86-1.41-4.95-3.29-1.08-1.88-1.15-4.07-.37-5.93.4-.96.11-2.05-.72-2.68-1.6-1.22-2.64-3.15-2.64-5.32s1.04-4.1,2.64-5.33c.83-.63,1.12-1.72.72-2.68-.78-1.86-.71-4.05.37-5.93,1.09-1.88,2.95-3.04,4.95-3.29,1.03-.13,1.83-.93,1.96-1.96.26-2,1.41-3.86,3.29-4.95,1.88-1.09,4.07-1.15,5.93-.38.96.4,2.05.11,2.68-.72,1.22-1.6,3.15-2.64,5.33-2.64,1.73,0,3.31.66,4.49,1.74.3.27.58.58.83.9.63.83,1.73,1.12,2.68.72,1.86-.78,4.05-.71,5.93.38,1.88,1.09,3.04,2.95,3.29,4.95.13,1.03.93,1.83,1.96,1.96,2,.26,3.86,1.41,4.95,3.29,1.08,1.88,1.15,4.07.37,5.93-.4.96-.11,2.05.72,2.68,1.6,1.22,2.64,3.15,2.64,5.33h0Z"/>
  <path class="st4" d="M58.33,65.85s-.05.06-.08.09c-1.22,1.6-3.15,2.64-5.32,2.64s-4.1-1.04-5.32-2.64c-.63-.83-1.73-1.12-2.68-.72-1.86.78-4.05.71-5.93-.38-1.88-1.09-3.04-2.95-3.29-4.95-.13-1.03-.93-1.83-1.96-1.96-2-.26-3.86-1.41-4.95-3.29-1.08-1.88-1.15-4.07-.37-5.93.4-.96.11-2.05-.72-2.68-1.6-1.22-2.64-3.15-2.64-5.32s1.04-4.1,2.64-5.33c.83-.63,1.12-1.72.72-2.68-.78-1.86-.71-4.05.37-5.93,1.09-1.88,2.95-3.04,4.95-3.29,1.03-.13,1.83-.93,1.96-1.96.26-2,1.41-3.86,3.29-4.95,1.88-1.09,4.07-1.15,5.93-.38.96.4,2.05.11,2.68-.72,1.22-1.6,3.15-2.64,5.33-2.64,1.73,0,3.31.66,4.49,1.74-4.46,6.32-17.76,28.88.91,51.29h0Z"/>
  <path class="st3" d="M72.68,40.7c0,10.41-8.06,18.95-18.28,19.7l-14.99-7.18v-25.26l14.2-6.99c10.59.36,19.07,9.06,19.07,19.74Z"/>
  <path class="st2" d="M54.4,60.4c-.48.04-.97.05-1.47.05-10.91,0-19.75-8.84-19.75-19.75s8.84-19.75,19.75-19.75c.23,0,.45,0,.68.01-4.44,8.86-8.8,23.86.79,39.44h0Z"/>
  <path class="st4" d="M46.54,52.31c-.64,0-1.16-.52-1.16-1.16v-19.75h-3.48c-.64,0-1.16-.52-1.16-1.16s.52-1.16,1.16-1.16h4.64c.64,0,1.16.52,1.16,1.16v20.91c0,.64-.52,1.16-1.16,1.16Z"/>
  <path class="st2" d="M57.54,52.31c-2,0-3.86-.76-5.27-2.14-1.44-1.41-2.24-3.3-2.24-5.32,0-.64.52-1.16,1.16-1.16s1.16.52,1.16,1.16c0,1.39.55,2.69,1.54,3.66,1,.98,2.34,1.5,3.76,1.48,2.75-.05,5.01-2.19,5.15-4.87.07-1.4-.42-2.74-1.39-3.76-.99-1.05-2.4-1.65-3.87-1.65-1.35,0-2.52.14-3.85.81-.39.2-.86.16-1.21-.1s-.53-.69-.45-1.12l1.56-9.25c.09-.56.58-.96,1.14-.96h8.07c.64,0,1.16.52,1.16,1.16s-.52,1.16-1.16,1.16h-7.09l-1.07,6.31c.86-.21,1.79-.31,2.9-.31,2.09,0,4.12.86,5.55,2.37,1.42,1.49,2.13,3.44,2.03,5.48-.21,3.88-3.46,6.98-7.42,7.06-.05,0-.1,0-.16,0h0Z"/>
</svg>