<?xml version="1.0" encoding="UTF-8"?>
<svg id="Layer_1" xmlns="http://www.w3.org/2000/svg" version="1.1" viewBox="0 0 100 100">
  <!-- Generator: Adobe Illustrator 29.8.1, SVG Export Plug-In . SVG Version: 2.1.1 Build 2)  -->
  <defs>
    <style>
      .st0 {
        fill: #ffe274;
      }

      .st1 {
        fill: #00cc71;
      }

      .st2 {
        fill: #e0f4ff;
      }

      .st3 {
        fill: #b9dd39;
      }

      .st4 {
        fill: #ffb62a;
      }

      .st5 {
        fill: #e63950;
      }

      .st6 {
        fill: #ff637b;
      }

      .st7 {
        fill: #bbdcff;
      }
    </style>
  </defs>
  <path class="st0" d="M73.69,72.83l-2.93-2.93c5.55-5.55,8.6-12.92,8.6-20.77,0-3.24-.52-6.42-1.55-9.45l3.93-1.34c1.18,3.46,1.77,7.08,1.77,10.78,0,8.95-3.49,17.37-9.82,23.7h0Z"/>
  <path class="st0" d="M59.06,81.65l-1.12-3.99c2.71-.76,5.3-1.91,7.7-3.43l2.21,3.51c-2.73,1.73-5.69,3.04-8.79,3.91h0Z"/>
  <path class="st4" d="M73.69,72.83l-2.93-2.93c5.55-5.55,8.6-12.92,8.6-20.77,0-3.24-.52-6.42-1.55-9.45l3.93-1.34c1.18,3.46,1.77,7.08,1.77,10.78,0,8.95-3.49,17.37-9.82,23.7h0Z"/>
  <path class="st4" d="M59.06,81.65l-1.12-3.99c2.71-.76,5.3-1.91,7.7-3.43l2.21,3.51c-2.73,1.73-5.69,3.04-8.79,3.91h0Z"/>
  <path class="st0" d="M18.25,59.92c-1.18-3.45-1.77-7.08-1.77-10.79,0-8.95,3.49-17.37,9.82-23.7l2.93,2.93c-5.55,5.55-8.6,12.92-8.6,20.77,0,3.25.52,6.43,1.55,9.44l-3.93,1.34Z"/>
  <path class="st0" d="M34.33,24.52l-2.21-3.51c2.73-1.73,5.69-3.04,8.79-3.91l1.12,3.99c-2.71.76-5.3,1.91-7.7,3.43Z"/>
  <circle class="st0" cx="50" cy="49.14" r="18.97"/>
  <path class="st4" d="M50,68.11c10.46,0,18.97-8.51,18.97-18.97,0-5.24-2.13-9.98-5.57-13.42l-26.81,26.81c3.44,3.44,8.18,5.57,13.42,5.57Z"/>
  <path class="st2" d="M42.13,60.41l-2.93-2.93,2.22-2.22.8-4.78,3.99-.54.55-4.04,4.03-.55.54-3.99,4.78-.8,2.22-2.22,2.93,2.93-3.16,3.16-3.07.51-.55,4.08-4.03.55-.55,4.04-4.08.55-.51,3.07-3.16,3.16Z"/>
  <path class="st7" d="M40.42,58.7l1.71,1.71,3.16-3.16.51-3.07,4.08-.55.55-4.04,4.03-.55.55-4.08,3.07-.51,3.16-3.16-1.71-1.71-19.13,19.13Z"/>
  <circle class="st3" cx="69.39" cy="29.73" r="16"/>
  <path class="st1" d="M80.7,18.42l-22.62,22.62c2.9,2.9,6.9,4.69,11.31,4.69,8.82,0,16-7.18,16-16,0-4.41-1.79-8.41-4.69-11.31h0Z"/>
  <circle class="st6" cx="30.6" cy="68.53" r="16" transform="translate(-6.63 3.37) rotate(-5.68)"/>
  <path class="st5" d="M30.58,84.54c8.82,0,16-7.18,16-16,0-4.41-1.79-8.41-4.69-11.31l-22.62,22.62c2.9,2.9,6.9,4.69,11.31,4.69Z"/>
  <path class="st2" d="M64.05,27.65h10.7v4.15h-10.7v-4.15Z"/>
  <path class="st2" d="M35.93,66.47h-3.28v-3.28h-4.15v3.28h-3.28v4.15h3.28v3.28h4.15v-3.28h3.28v-4.15Z"/>
  <g>
    <path class="st7" d="M67.32,31.8h7.42v-4.15h-3.28l-4.15,4.15Z"/>
    <path class="st7" d="M28.51,73.89h4.15v-3.28h3.28v-4.15h-3.28l-4.15,4.15v3.28Z"/>
  </g>
</svg>