<?xml version="1.0" encoding="UTF-8"?>
<svg id="Layer_1" xmlns="http://www.w3.org/2000/svg" version="1.1" viewBox="0 0 100 100">
  <!-- Generator: Adobe Illustrator 29.8.1, SVG Export Plug-In . SVG Version: 2.1.1 Build 2)  -->
  <defs>
    <style>
      .st0 {
        fill: #26a6fe;
      }

      .st1 {
        fill: #fedba6;
      }

      .st2 {
        fill: #6ed5a1;
      }

      .st3 {
        fill: #fd8087;
      }

      .st4 {
        fill: #46cc8d;
      }

      .st5 {
        fill: #fe646f;
      }

      .st6 {
        fill: #60b7ff;
      }

      .st7 {
        fill: #a79ba7;
      }

      .st8 {
        fill: #f9f3f1;
      }

      .st9 {
        fill: #f3eae6;
      }

      .st10 {
        fill: #fece85;
      }

      .st11 {
        fill: #fd4755;
      }
    </style>
  </defs>
  <path class="st8" d="M88.97,77.67H11.66c-.35,0-.63-.28-.63-.63V27.39c0-.35.28-.63.63-.63h77.31c.35,0,.63.28.63.63v49.64c0,.35-.28.63-.63.63h0Z"/>
  <path class="st9" d="M88.97,26.76h-4.74c.35,0,.63.28.63.63v49.64c0,.35-.28.63-.63.63h4.74c.35,0,.63-.28.63-.63V27.39c0-.35-.28-.63-.63-.63Z"/>
  <path class="st7" d="M65.16,27.9l-14.07-12.96c-.44-.41-1.12-.41-1.56,0l-14.07,12.96c-.47.43-.5,1.16-.07,1.63.43.47,1.16.5,1.63.07l13.29-12.25,13.29,12.25c.22.2.5.3.78.3.31,0,.62-.12.85-.37.43-.47.4-1.2-.07-1.63Z"/>
  <circle class="st10" cx="50.31" cy="15.93" r="2.69"/>
  <path class="st5" d="M27.42,50.2l-6.48-6.48,2.35-2.35c1.79-1.79,4.69-1.79,6.48,0,1.79,1.79,1.79,4.69,0,6.48l-2.35,2.35Z"/>
  <path class="st11" d="M29.77,41.37c-1.52-1.52-3.85-1.75-5.61-.68.31.19.6.41.87.68,1.78,1.78,1.79,4.67.02,6.46l2.37,2.37,2.35-2.35c1.79-1.79,1.79-4.69,0-6.48Z"/>
  <path class="st6" d="M18.59,52.55c-1.79-1.79-1.79-4.69,0-6.48l2.35-2.35,6.48,6.48-2.35,2.35c-1.79,1.79-4.69,1.79-6.48,0Z"/>
  <path class="st0" d="M25.05,47.83l-4.72,4.72c-.27.27-.56.49-.87.68,1.76,1.07,4.09.84,5.61-.68l2.35-2.35-2.37-2.37Z"/>
  <path class="st1" d="M15.77,70.19v-7.41c0-1.51,1.22-2.73,2.73-2.73h25.6c1.51,0,2.73,1.22,2.73,2.73v7.41c0,1.51-1.22,2.73-2.73,2.73h-25.6c-1.51,0-2.73-1.22-2.73-2.73Z"/>
  <path class="st10" d="M44.1,60.05h-4.74c1.51,0,2.73,1.22,2.73,2.73v7.41c0,1.51-1.22,2.73-2.73,2.73h4.74c1.51,0,2.73-1.22,2.73-2.73v-7.41c0-1.51-1.22-2.73-2.73-2.73h0Z"/>
  <path class="st6" d="M89.6,33.72H11.02v-6.32c0-.35.28-.63.63-.63h77.31c.35,0,.63.28.63.63v6.32h0Z"/>
  <path class="st0" d="M88.97,26.76h-4.74c.35,0,.63.28.63.63v6.32h4.74v-6.32c0-.35-.28-.63-.63-.63Z"/>
  <g>
    <path class="st7" d="M20.64,65.77h8.17c.64,0,1.15-.52,1.15-1.15s-.52-1.15-1.15-1.15h-8.17c-.64,0-1.15.52-1.15,1.15s.52,1.15,1.15,1.15Z"/>
    <path class="st7" d="M34.81,67.2h-14.16c-.64,0-1.15.52-1.15,1.15s.52,1.15,1.15,1.15h14.16c.64,0,1.15-.52,1.15-1.15s-.52-1.15-1.15-1.15Z"/>
  </g>
  <g>
    <path class="st7" d="M36.78,42.39h4.56c.64,0,1.15-.52,1.15-1.15s-.52-1.15-1.15-1.15h-4.56c-.64,0-1.15.52-1.15,1.15s.52,1.15,1.15,1.15Z"/>
    <path class="st7" d="M36.78,46.71h7.91c.64,0,1.15-.52,1.15-1.15s-.52-1.15-1.15-1.15h-7.91c-.64,0-1.15.52-1.15,1.15s.52,1.15,1.15,1.15Z"/>
    <path class="st7" d="M44.69,48.65h-7.91c-.64,0-1.15.52-1.15,1.15s.52,1.15,1.15,1.15h7.91c.64,0,1.15-.52,1.15-1.15s-.52-1.15-1.15-1.15Z"/>
    <path class="st7" d="M44.69,52.9h-7.91c-.64,0-1.15.52-1.15,1.15s.52,1.15,1.15,1.15h7.91c.64,0,1.15-.52,1.15-1.15s-.52-1.15-1.15-1.15Z"/>
  </g>
  <g>
    <path class="st3" d="M82.59,81.31l-5.28-.63c-.22-.03-.44.06-.57.23l-3.35,4.13c-.17.21-.5.16-.6-.09l-7.35-18.1,10.18-4.13,7.35,18.1c.1.25-.1.52-.37.48h0Z"/>
    <path class="st5" d="M82.96,80.83l-7.35-18.1-4.07,1.65,6.66,16.41,4.39.52c.27.03.47-.23.37-.48Z"/>
    <path class="st3" d="M53.45,81.31l5.28-.63c.22-.03.44.06.57.23l3.35,4.13c.17.21.5.16.6-.09l7.35-18.1-10.18-4.13-7.35,18.1c-.1.25.1.52.37.48h0Z"/>
    <path class="st5" d="M60.42,62.73l-.67,1.65,6.11,2.48-5.99,14.76,2.78,3.43c.17.21.5.16.6-.09l7.35-18.1-10.18-4.13Z"/>
  </g>
  <path class="st1" d="M83.83,60.36c0,1.36-1.43,2.51-1.76,3.77-.35,1.3.3,3.01-.35,4.14-.67,1.15-2.48,1.44-3.41,2.38s-1.22,2.75-2.38,3.41c-1.14.66-2.84,0-4.14.35-1.25.33-2.41,1.76-3.76,1.76s-2.51-1.43-3.77-1.76c-1.3-.35-3.01.3-4.14-.35-1.15-.67-1.44-2.48-2.38-3.41s-2.75-1.22-3.41-2.38c-.66-1.14,0-2.84-.35-4.14-.33-1.25-1.76-2.41-1.76-3.76s1.43-2.51,1.76-3.77c.35-1.3-.3-3.01.35-4.14.67-1.15,2.48-1.44,3.41-2.38s1.22-2.75,2.38-3.41c1.14-.66,2.84,0,4.14-.35,1.25-.33,2.41-1.76,3.76-1.76s2.51,1.43,3.77,1.76c1.3.35,3.01-.3,4.14.35,1.15.67,1.44,2.48,2.38,3.41.93.93,2.75,1.22,3.41,2.38.66,1.14,0,2.84.35,4.14.34,1.25,1.76,2.41,1.76,3.76Z"/>
  <circle class="st2" cx="68.02" cy="60.36" r="10.59"/>
  <path class="st4" d="M68.02,49.77c-.82,0-1.61.1-2.37.27,4.71,1.08,8.22,5.29,8.22,10.32s-3.51,9.25-8.22,10.32c.76.17,1.56.27,2.37.27,5.85,0,10.59-4.74,10.59-10.59s-4.74-10.59-10.59-10.59Z"/>
  <path class="st1" d="M74.11,31.03h-12.33c-1.48,0-2.69,1.2-2.69,2.69s1.2,2.69,2.69,2.69h12.33c1.48,0,2.69-1.2,2.69-2.69s-1.2-2.69-2.69-2.69Z"/>
  <path class="st10" d="M74.11,31.03h-4.74c1.48,0,2.69,1.2,2.69,2.69s-1.2,2.69-2.69,2.69h4.74c1.48,0,2.69-1.2,2.69-2.69s-1.2-2.69-2.69-2.69Z"/>
  <path class="st8" d="M73.35,56.87c-.47-.42-1.2-.38-1.63.09l-4.63,5.18-2.82-2.86c-.45-.45-1.18-.46-1.63-.01-.45.45-.46,1.17-.01,1.63l3.68,3.73c.22.22.51.34.82.34,0,0,.02,0,.03,0,.32,0,.62-.15.83-.38l5.45-6.09c.42-.47.38-1.2-.09-1.63h0Z"/>
</svg>