<?xml version="1.0" encoding="UTF-8"?>
<svg id="Layer_1" xmlns="http://www.w3.org/2000/svg" version="1.1" viewBox="0 0 100 100">
  <!-- Generator: Adobe Illustrator 29.8.1, SVG Export Plug-In . SVG Version: 2.1.1 Build 2)  -->
  <defs>
    <style>
      .st0 {
        fill: #6e6e6e;
      }

      .st1 {
        fill: #ffe6ee;
      }

      .st2 {
        fill: #7fddbb;
      }

      .st3 {
        fill: #85afe1;
      }

      .st4 {
        fill: #689cda;
      }

      .st5 {
        fill: #31c292;
      }

      .st6 {
        fill: #db9cb3;
      }

      .st7 {
        fill: #f4becd;
      }

      .st8 {
        fill: #ffc7d3;
      }
    </style>
  </defs>
  <g id="FLAT">
    <circle class="st8" cx="47.04" cy="56.36" r="36.96"/>
    <circle class="st7" cx="47.04" cy="56.36" r="29.57"/>
    <path class="st7" d="M44.09,12.01h5.91v8.87h-5.91v-8.87Z"/>
    <path class="st6" d="M17.47,56.36c0,16.33,13.24,29.57,29.57,29.57V26.79c-16.33,0-29.57,13.24-29.57,29.57Z"/>
    <path class="st0" d="M82.53,48.97h-5.91c-1.63,0-2.96,1.32-2.96,2.96v2.96h11.83v-2.96c0-1.63-1.32-2.96-2.96-2.96Z"/>
    <path class="st5" d="M87.13,62.64l-1.82-.73c-1.68-.67-2.79-2.3-2.79-4.12v-2.91h-5.91v2.91c0,1.81-1.1,3.44-2.79,4.12l-1.82.73c-1.68.67-2.79,2.3-2.79,4.12v22.13c0,2.45,1.99,4.44,4.44,4.44h11.83c2.45,0,4.44-1.99,4.44-4.44h0v-22.13c0-1.81-1.1-3.44-2.79-4.12Z"/>
    <path class="st2" d="M69.22,69.67h20.7v17.74h-20.7v-17.74Z"/>
    <path class="st5" d="M73.66,74.11h11.83v2.96h-11.83v-2.96Z"/>
    <path class="st5" d="M76.61,80.02h5.91v2.96h-5.91v-2.96Z"/>
    <path class="st3" d="M68.24,46.92l8.8-23.55,2.77,1.03-8.8,23.55-2.77-1.03Z"/>
    <path class="st3" d="M51.69,91.26l3.1-8.31,2.77,1.03-3.1,8.31-2.77-1.03Z"/>
    <path class="st4" d="M48.41,91.61l1.04-2.77,8.31,3.1-1.04,2.77-8.31-3.1Z"/>
    <path class="st6" d="M42.61,7.57h8.87c1.63,0,2.96,1.32,2.96,2.96v2.96h-14.79v-2.96c0-1.63,1.32-2.96,2.96-2.96Z"/>
    <path class="st1" d="M31.82,72.2l-2.09-2.09,14.35-14.35v-18.61h2.96v19.22c0,.39-.16.77-.43,1.05l-14.79,14.79Z"/>
    <path class="st3" d="M79.8,36.8l2.73-4.09,2.73,4.09c.15.23.27.47.36.73.54,1.61-.33,3.35-1.94,3.89-.31.1-.64.16-.97.16h-.34c-1.7,0-3.07-1.38-3.07-3.07,0-.33.05-.66.16-.97.09-.26.21-.51.36-.73h0Z"/>
    <path class="st4" d="M60.31,85l-8.31-3.1,11.98-32.1c.27-.73.83-1.33,1.54-1.66l4.59-2.1,2.1,4.59c.33.71.35,1.53.08,2.26l-11.98,32.1Z"/>
    <g>
      <path class="st3" d="M62.37,54.2l1.04-2.77,4.16,1.55-1.04,2.77-4.16-1.55Z"/>
      <path class="st3" d="M60.3,59.74l1.04-2.77,4.16,1.55-1.04,2.77-4.16-1.55Z"/>
      <path class="st3" d="M58.23,65.28l1.04-2.77,4.16,1.55-1.04,2.77-4.16-1.55Z"/>
      <path class="st3" d="M56.16,70.82l1.04-2.77,4.16,1.55-1.04,2.77-4.16-1.55Z"/>
      <path class="st3" d="M54.09,76.37l1.04-2.77,4.16,1.55-1.04,2.77-4.16-1.55Z"/>
    </g>
  </g>
</svg>