<?xml version="1.0" encoding="UTF-8"?>
<svg id="Layer_1" xmlns="http://www.w3.org/2000/svg" version="1.1" viewBox="0 0 100 100">
  <!-- Generator: Adobe Illustrator 29.8.1, SVG Export Plug-In . SVG Version: 2.1.1 Build 2)  -->
  <defs>
    <style>
      .st0 {
        fill: #5aaae7;
      }

      .st1 {
        fill: #3d9ae2;
      }

      .st2 {
        fill: #f7941d;
      }

      .st3 {
        fill: #3440db;
      }

      .st4 {
        fill: #d80027;
      }

      .st5 {
        fill: #f8a036;
      }

      .st6 {
        fill: #ffcd00;
      }

      .st7 {
        fill: #f1f2f2;
      }

      .st8 {
        fill: #96c8ef;
      }

      .st9 {
        fill: #1e81ce;
      }

      .st10 {
        fill: #c2dff6;
      }

      .st11 {
        fill: #1a6fb0;
      }

      .st12 {
        fill: #4b55df;
      }

      .st13 {
        fill: #78b9eb;
      }

      .st14 {
        fill: #ffd839;
      }
    </style>
  </defs>
  <path class="st12" d="M26.94,89.97h-4.61c-1.7,0-3.07,1.38-3.07,3.07s1.38,3.07,3.07,3.07h4.26c7.12-1.19,14.06-3.25,20.67-6.15h-20.32Z"/>
  <path class="st3" d="M77.67,89.97h-30.41c-6.61,2.9-13.55,4.96-20.67,6.15h51.08c1.7,0,3.07-1.38,3.07-3.07s-1.38-3.07-3.07-3.07Z"/>
  <path class="st4" d="M74.59,59.22c1.7,0,3.07-1.38,3.07-3.07s-1.38-3.07-3.07-3.07H25.41c-1.7,0-3.07,1.38-3.07,3.07s1.38,3.07,3.07,3.07h49.19Z"/>
  <path class="st14" d="M36.17,85.36c0-2.55-2.06-4.61-4.61-4.61v-12.3c2.55,0,4.61-2.06,4.61-4.61h27.67c0,2.55,2.06,4.61,4.61,4.61v5.05c2.94-4.19,4.54-9.16,4.61-14.27H26.94v30.74h20.32c2.97-1.32,5.84-2.86,8.58-4.61h-19.68Z"/>
  <path class="st6" d="M73.06,59.22c-.07,5.11-1.67,10.09-4.61,14.27v7.25c-2.55,0-4.61,2.06-4.61,4.61h-7.99c-2.74,1.75-5.61,3.29-8.58,4.61h25.8v-30.74Z"/>
  <path class="st11" d="M37.94,41.3c-2.12.74-4.12,1.8-5.93,3.13,4.16,5.19,10.37,8.32,17.02,8.58.32.04.64.06.97.06-5.18,0-9.68-4.75-12.06-11.77Z"/>
  <path class="st1" d="M37.94,18.73c-2.12-.74-4.12-1.79-5.93-3.13-3.29,4.09-5.08,9.17-5.07,14.42h9.22c-.02-3.83.58-7.64,1.78-11.29Z"/>
  <path class="st9" d="M36.17,30.02h-9.22c0,5.24,1.79,10.33,5.07,14.42,1.81-1.34,3.8-2.4,5.93-3.13-1.2-3.64-1.8-7.45-1.78-11.28Z"/>
  <path class="st0" d="M67.99,44.44c-1.81-1.34-3.8-2.4-5.93-3.13-2.37,7.02-6.88,11.77-12.06,11.77.32,0,.65-.02.97-.06,6.65-.26,12.86-3.39,17.02-8.58Z"/>
  <path class="st13" d="M62.06,41.3c2.12.74,4.12,1.8,5.93,3.13,3.29-4.09,5.08-9.17,5.07-14.42h-9.22c.02,3.83-.58,7.64-1.78,11.28Z"/>
  <path class="st8" d="M63.83,30.02h9.22c0-5.24-1.79-10.33-5.07-14.42-1.81,1.34-3.8,2.4-5.93,3.13,1.2,3.64,1.8,7.45,1.78,11.29Z"/>
  <path class="st0" d="M50,20.79c-4.11.03-8.19-.67-12.05-2.06-1.2,3.64-1.8,7.45-1.78,11.28h13.83v-9.22Z"/>
  <path class="st9" d="M37.95,41.3c2.37,7.02,6.87,11.78,12.05,11.78v-13.83c-4.11-.03-8.19.67-12.05,2.06Z"/>
  <path class="st13" d="M63.83,30.02c.02-3.83-.58-7.64-1.78-11.29-3.87,1.39-7.95,2.09-12.06,2.06v9.22h13.83Z"/>
  <path class="st1" d="M62.06,41.3c-3.87-1.39-7.95-2.09-12.06-2.06v13.83c5.18,0,9.68-4.75,12.06-11.77Z"/>
  <path class="st1" d="M36.17,30.02c-.02,3.83.58,7.64,1.78,11.28,3.87-1.39,7.95-2.09,12.06-2.06v-9.22h-13.83Z"/>
  <path class="st0" d="M50,30.02v9.22c4.11-.03,8.19.67,12.05,2.06,1.2-3.64,1.8-7.45,1.78-11.28h-13.83Z"/>
  <path class="st0" d="M50,6.96c-.32,0-.65.02-.97.06-6.65.26-12.86,3.39-17.02,8.58,1.81,1.34,3.8,2.4,5.93,3.13,2.37-7.02,6.88-11.77,12.06-11.77Z"/>
  <path class="st10" d="M62.06,18.73c2.12-.74,4.12-1.79,5.93-3.13-4.16-5.19-10.37-8.32-17.02-8.58-.32-.04-.64-.06-.97-.06,5.18,0,9.68,4.75,12.06,11.77Z"/>
  <path class="st13" d="M37.94,18.73c3.87,1.39,7.95,2.09,12.06,2.06V6.96c-5.18,0-9.68,4.75-12.06,11.77Z"/>
  <path class="st8" d="M62.05,18.73c-2.37-7.03-6.87-11.78-12.05-11.78v13.83c4.11.03,8.19-.67,12.05-2.06Z"/>
  <path class="st5" d="M68.45,73.5v-5.05c-2.55,0-4.61-2.06-4.61-4.61h-27.67c0,2.55-2.06,4.61-4.61,4.61v12.3c2.55,0,4.61,2.06,4.61,4.61h19.68c4.96-3.06,9.25-7.09,12.61-11.86Z"/>
  <path class="st2" d="M55.84,85.36h7.99c0-2.55,2.06-4.61,4.61-4.61v-7.25c-3.35,4.77-7.64,8.8-12.61,11.86Z"/>
  <g>
    <path class="st7" d="M56.15,73.06h-18.45c-.85,0-1.54.69-1.54,1.54s.69,1.54,1.54,1.54h18.45c.85,0,1.54-.69,1.54-1.54s-.69-1.54-1.54-1.54Z"/>
    <path class="st7" d="M62.3,73.06h-1.54c-.85,0-1.54.69-1.54,1.54s.69,1.54,1.54,1.54h1.54c.85,0,1.54-.69,1.54-1.54s-.69-1.54-1.54-1.54Z"/>
    <path class="st7" d="M56.15,68.45h-15.37c-.85,0-1.54.69-1.54,1.54s.69,1.54,1.54,1.54h15.37c.85,0,1.54-.69,1.54-1.54s-.69-1.54-1.54-1.54Z"/>
    <path class="st7" d="M56.15,77.67h-15.37c-.85,0-1.54.69-1.54,1.54s.69,1.54,1.54,1.54h15.37c.85,0,1.54-.69,1.54-1.54s-.69-1.54-1.54-1.54Z"/>
  </g>
</svg>