<?xml version="1.0" encoding="UTF-8"?>
<svg id="Layer_1" xmlns="http://www.w3.org/2000/svg" version="1.1" viewBox="0 0 50 50">
  <!-- Generator: Adobe Illustrator 29.8.1, SVG Export Plug-In . SVG Version: 2.1.1 Build 2)  -->
  <defs>
    <style>
      .st0 {
        fill: #87e694;
      }

      .st1 {
        fill: #39c453;
      }

      .st2 {
        fill: #fff;
      }

      .st3 {
        fill: #d4ffd9;
      }

      .st4 {
        fill: #13b8ff;
      }

      .st5 {
        fill: #69d5ff;
      }

      .st6 {
        fill: #aeecff;
      }

      .st7 {
        fill: #dbf7ff;
      }
    </style>
  </defs>
  <path class="st7" d="M15.2,30.23l-9.38,1.25c3.17,5.49,9.11,9.18,15.9,9.18l-6.52-10.42Z"/>
  <path class="st6" d="M13.56,21.05l-10.19,1.25c0,3.34.9,6.48,2.46,9.18h8.13s-.4-10.43-.4-10.43Z"/>
  <path class="st7" d="M15.2,11.87l-9.38,1.25c-1.56,2.7-2.46,5.84-2.46,9.18h8.95s2.89-10.43,2.89-10.43Z"/>
  <path class="st4" d="M21.72,40.65c6.79,0,12.73-3.69,15.9-9.18l-9.38-1.24-6.52,10.43Z"/>
  <path class="st5" d="M29.88,21.05l-.4,10.42h8.13c1.56-2.7,2.46-5.84,2.46-9.18l-10.19-1.24Z"/>
  <path class="st4" d="M31.13,22.29h8.95c0-3.34-.9-6.48-2.46-9.18l-9.38-1.24,2.89,10.42Z"/>
  <path class="st5" d="M29.49,13.11h8.13c-3.17-5.49-9.11-9.18-15.9-9.18l7.77,9.18Z"/>
  <path class="st6" d="M21.72,3.94c-6.79,0-12.73,3.69-15.9,9.18h8.13s7.77-9.18,7.77-9.18Z"/>
  <path class="st5" d="M29.49,31.47l-9.01-1.24,1.25,10.42c3.46-1.79,6.16-5.05,7.77-9.18Z"/>
  <path class="st6" d="M21.72,31.47h7.77c1.06-2.73,1.64-5.85,1.64-9.18l-10.66-1.24,1.25,10.42Z"/>
  <path class="st5" d="M20.47,11.87l1.25,10.42h9.41c0-3.33-.58-6.45-1.64-9.18l-9.01-1.24Z"/>
  <g>
    <path class="st6" d="M29.49,13.11c-1.61-4.13-4.31-7.39-7.77-9.18l-1.25,4.84,1.25,4.34h7.77Z"/>
    <path class="st6" d="M13.95,31.47c1.61,4.13,4.31,7.39,7.77,9.18v-9.18s-3.89-2.49-3.89-2.49l-3.88,2.49Z"/>
  </g>
  <path class="st7" d="M12.31,22.3c0,3.33.58,6.45,1.64,9.18h7.77s0-9.18,0-9.18l-4.71-2.49-4.7,2.49Z"/>
  <path class="st6" d="M21.72,13.12l-3.88-2.49-3.88,2.49c-1.06,2.73-1.64,5.85-1.64,9.18h9.41s0-9.18,0-9.18Z"/>
  <path class="st7" d="M13.95,13.12h7.77s0-9.18,0-9.18c-3.46,1.79-6.16,5.05-7.77,9.18Z"/>
  <path class="st1" d="M39.65,16.32h-5.26l-1.71,13.91,1.71,17.4h0c7.81-4.26,12.66-9.42,12.66-19.72v-6.69l-7.4-4.89Z"/>
  <path class="st0" d="M29.12,16.32l-7.4,4.89v6.69c0,10.3,4.86,15.46,12.66,19.72h0v-31.31h-5.26Z"/>
  <polygon class="st3" points="36.64 27.84 36.64 23.71 34.39 23.71 32.68 30.23 34.39 36.47 36.64 36.47 36.64 32.34 40.77 32.34 40.77 27.84 36.64 27.84"/>
  <polygon class="st2" points="32.13 23.71 32.13 27.84 28.01 27.84 28.01 32.34 32.13 32.34 32.13 36.47 34.39 36.47 34.39 23.71 32.13 23.71"/>
</svg>